#N canvas 159 0 1349 709 12;
#X msg 221 149 \; pd dsp \$1;
#X obj 221 107 tgl 30 0 empty empty empty 17 7 0 10 -262144 -1 -1 1
1;
#X obj 30 109 bng 15 250 50 0 empty empty empty 17 7 0 10 -262144 -1
-1;
#X obj 46 8 key;
#X floatatom 30 58 5 0 0 0 - - -;
#X obj 30 79 sel 97;
#X obj 30 35 switch;
#X obj 30 -22 tgl 22 0 empty empty empty 17 7 0 10 -262144 -1 -1 0
1;
#X text 59 -19 Allow Keystrokes;
#X obj 391 191 soundfiler;
#X floatatom 444 221 0 0 0 0 - - -;
#X obj 444 249 s sampleSize;
#X obj 390 281 expr 44100 / $f1;
#X floatatom 399 309 0 0 0 0 - - -;
#X obj 391 353 phasor~;
#X obj 390 398 *~;
#X obj 451 373 r sampleSize;
#N canvas 0 22 450 300 (subpatch) 0;
#X array Sound 62743 float 2;
#X coords 0 1 62743 -1 200 140 1;
#X restore 57 334 graph;
#X obj 581 362 metro 50;
#X obj 581 394 snapshot~;
#X obj 581 440 /;
#X obj 60 482 hsl 195 15 0 1 0 0 empty empty empty -2 -8 0 10 -262144
-1 -1 0 1;
#X obj 581 317 tgl 20 0 empty empty empty 17 7 0 10 -262144 -1 -1 0
1;
#X obj 625 420 r sampleSize;
#X obj 581 470 s pos;
#X obj 11 462 r pos;
#X obj 390 480 tabread4~ Sound;
#X obj 388 556 *~;
#X obj 515 489 vsl 30 128 0 1 0 0 empty empty empty 0 -9 0 10 -262130
-1 -1 2997 1;
#X obj 578 280 hsl 130 15 0 1 0 0 empty empty empty -2 -8 0 10 -262144
-1 -1 0 1;
#X obj 673 108 bng 15 250 50 0 empty empty empty 17 7 0 10 -262144
-1 -1;
#X obj 673 182 t b b;
#X obj 575 110 bng 15 250 50 0 empty empty empty 17 7 0 10 -262144
-1 -1;
#X msg 704 211 0;
#X msg 667 210 0;
#X text 582 55 PLAYBACK;
#X text 598 108 START;
#X text 692 107 STOP;
#X obj 788 363 phasor~;
#X obj 787 408 *~;
#X obj 848 383 r sampleSize;
#X obj 787 490 tabread4~ Sound;
#X obj 785 566 *~;
#X obj 912 499 vsl 30 128 0 1 0 0 empty empty empty 0 -9 0 10 -262130
-1 -1 3391 1;
#X obj 791 304 hsl 130 15 0 1 0 0 empty empty empty -2 -8 0 10 -262144
-1 -1 0 1;
#X obj 886 132 bng 15 250 50 0 empty empty empty 17 7 0 10 -262144
-1 -1;
#X obj 886 206 t b b;
#X obj 788 134 bng 15 250 50 0 empty empty empty 17 7 0 10 -262144
-1 -1;
#X msg 917 235 0;
#X msg 880 234 0;
#X text 811 132 START;
#X text 905 131 STOP;
#X msg 788 210 0.6;
#X obj 886 101 delay 1600;
#X obj 992 373 phasor~;
#X obj 991 418 *~;
#X obj 1052 393 r sampleSize;
#X obj 991 500 tabread4~ Sound;
#X obj 989 576 *~;
#X obj 1116 509 vsl 30 128 0 1 0 0 empty empty empty 0 -9 0 10 -262130
-1 -1 3289 1;
#X obj 995 307 hsl 130 15 0 1 0 0 empty empty empty -2 -8 0 10 -262144
-1 -1 0 1;
#X obj 1090 135 bng 15 250 50 0 empty empty empty 17 7 0 10 -262144
-1 -1;
#X obj 1090 209 t b b;
#X obj 992 137 bng 15 250 50 0 empty empty empty 17 7 0 10 -262144
-1 -1;
#X msg 1121 238 0;
#X msg 1084 237 0;
#X text 1015 135 START;
#X text 1109 134 STOP;
#X obj 1171 371 phasor~;
#X obj 1170 416 *~;
#X obj 1231 391 r sampleSize;
#X obj 1170 498 tabread4~ Sound;
#X obj 1168 574 *~;
#X obj 1295 507 vsl 30 128 0 1 0 0 empty empty empty 0 -9 0 10 -262130
-1 -1 2896 1;
#X obj 1174 312 hsl 130 15 0 1 0 0 empty empty empty -2 -8 0 10 -262144
-1 -1 0 1;
#X obj 1269 140 bng 15 250 50 0 empty empty empty 17 7 0 10 -262144
-1 -1;
#X obj 1269 214 t b b;
#X obj 1171 142 bng 15 250 50 0 empty empty empty 17 7 0 10 -262144
-1 -1;
#X msg 1300 243 0;
#X msg 1263 242 0;
#X text 1194 140 START;
#X text 1288 139 STOP;
#X obj 1375 381 phasor~;
#X obj 1374 426 *~;
#X obj 1435 401 r sampleSize;
#X obj 1374 508 tabread4~ Sound;
#X obj 1372 584 *~;
#X obj 1499 517 vsl 30 128 0 1 0 0 empty empty empty 0 -9 0 10 -262130
-1 -1 7493 1;
#X obj 1378 315 hsl 130 15 0 1 0 0 empty empty empty -2 -8 0 10 -262144
-1 -1 0 1;
#X obj 1473 143 bng 15 250 50 0 empty empty empty 17 7 0 10 -262144
-1 -1;
#X obj 1473 217 t b b;
#X obj 1375 145 bng 15 250 50 0 empty empty empty 17 7 0 10 -262144
-1 -1;
#X msg 1504 246 0;
#X msg 1467 245 0;
#X text 1398 143 START;
#X text 1492 142 STOP;
#X obj 1568 382 phasor~;
#X obj 1567 427 *~;
#X obj 1628 402 r sampleSize;
#X obj 1567 509 tabread4~ Sound;
#X obj 1565 585 *~;
#X obj 1692 518 vsl 30 128 0 1 0 0 empty empty empty 0 -9 0 10 -262130
-1 -1 8890 1;
#X obj 1571 316 hsl 130 15 0 1 0 0 empty empty empty -2 -8 0 10 -262144
-1 -1 0 1;
#X obj 1666 144 bng 15 250 50 0 empty empty empty 17 7 0 10 -262144
-1 -1;
#X obj 1666 218 t b b;
#X obj 1568 146 bng 15 250 50 0 empty empty empty 17 7 0 10 -262144
-1 -1;
#X msg 1697 247 0;
#X msg 1660 246 0;
#X text 1591 144 START;
#X text 1685 143 STOP;
#X floatatom 1157 80 5 0 0 0 - - -;
#X floatatom 1336 85 5 0 0 0 - - -;
#X floatatom 1540 89 5 0 0 0 - - -;
#X floatatom 1703 91 5 0 0 0 - - -;
#X msg 1568 222 0.4;
#X msg 1375 221 0.445;
#X obj 1269 109 delay 1956;
#X msg 1171 218 0.5001;
#X floatatom 695 346 5 0 0 0 - - -;
#X obj 1473 112 delay 2200;
#X obj 1666 113 delay 2500;
#X floatatom 740 53 5 0 0 0 - - -;
#X obj 673 76 delay 1235;
#X text 191 308 normal sample speed;
#N canvas 0 22 450 300 (subpatch) 0;
#X array waves 624980 float 2;
#X coords 0 1 624980 -1 200 140 1;
#X restore 53 717 graph;
#X obj 392 766 soundfiler;
#X floatatom 446 800 0 0 0 0 - - -;
#X obj 392 860 expr 44100 / $f1;
#X floatatom 330 887 0 0 0 0 - - -;
#X obj 393 932 phasor~;
#X obj 392 977 *~;
#X obj 583 941 metro 50;
#X obj 583 973 snapshot~;
#X obj 583 1019 /;
#X obj 583 896 tgl 20 0 empty empty empty 17 7 0 10 -262144 -1 -1 0
1;
#X obj 390 1135 *~;
#X obj 517 1068 vsl 30 128 0 1 0 0 empty empty empty 0 -9 0 10 -262130
-1 -1 12700 1;
#X obj 580 859 hsl 130 15 0 1 0 0 empty empty empty -2 -8 0 10 -262144
-1 -1 0 1;
#X obj 675 687 bng 15 250 50 0 empty empty empty 17 7 0 10 -262144
-1 -1;
#X obj 675 761 t b b;
#X obj 577 689 bng 15 250 50 0 empty empty empty 17 7 0 10 -262144
-1 -1;
#X msg 706 790 0;
#X msg 669 789 0;
#X text 578 657 PLAYBACK;
#X text 600 687 START;
#X text 694 686 STOP;
#X floatatom 697 925 5 0 0 0 - - -;
#X obj 392 1059 tabread4~ waves;
#X msg 577 765 0.0705623;
#X obj 583 1049 s Wpos;
#X obj 55 860 hsl 195 15 0 1 0 0 empty empty empty -2 -8 0 10 -262144
-1 -1 0 1;
#X obj 6 840 r Wpos;
#X obj 446 828 s WsampleSize;
#X obj 453 952 r WsampleSize;
#X obj 627 999 r WsampleSize;
#X msg 992 213 0.563;
#X obj 1090 104 delay 1780;
#X msg 575 186 0.662;
#X floatatom 913 648 5 0 0 0 - - -;
#X floatatom 1116 654 5 0 0 0 - - -;
#X floatatom 1296 651 5 0 0 0 - - -;
#X floatatom 1499 658 5 0 0 0 - - -;
#X floatatom 1692 658 5 0 0 0 - - -;
#X msg 913 461 0.267;
#X msg 1116 475 0.259;
#X msg 1294 465 0.228;
#X msg 1499 471 0.59;
#X msg 1692 475 0.7;
#X obj 221 -17 loadbang;
#X obj 221 32 s lbang;
#X obj 913 435 r lbang;
#X obj 1113 441 r lbang;
#X obj 1294 438 r lbang;
#X obj 1498 444 r lbang;
#X obj 1681 446 r lbang;
#X obj 221 7 delay 2000;
#X obj 221 80 r lbang;
#X floatatom 517 629 5 0 0 0 - - -;
#X obj 515 435 r lbang;
#X msg 515 461 0.236;
#X obj 516 1008 r lbang;
#X floatatom 557 1179 5 0 0 0 - - -;
#X msg 516 1034 1;
#X obj 392 711 r lbang;
#X msg 391 161 read -resize ping.aif Sound;
#X obj 391 93 r lbang;
#X obj 188 17 bng 15 250 50 0 empty empty empty 17 7 0 10 -262144 -1
-1;
#X msg 392 739 read -resize waves.wav waves;
#X obj 575 20 inlet;
#X obj 788 20 inlet;
#X obj 992 23 inlet;
#X obj 1172 25 inlet;
#X obj 1375 27 inlet;
#X obj 1568 29 inlet;
#X obj 1006 1065 *~;
#X obj 1006 1109 dac~;
#X obj 1201 923 vsl 30 128 0 1 0 0 empty empty empty 0 -9 0 10 -262130
-1 -1 0 1;
#X obj 1201 884 r switchVol;
#X obj 388 598 throw~ mix;
#X obj 1006 1019 catch~ mix;
#X obj 786 614 throw~ mix;
#X obj 989 618 throw~ mix;
#X obj 1167 616 throw~ mix;
#X obj 390 1171 throw~ mix;
#X obj 1371 622 throw~ mix;
#X obj 1566 623 throw~ mix;
#X connect 1 0 0 0;
#X connect 3 0 6 1;
#X connect 4 0 5 0;
#X connect 5 0 2 0;
#X connect 6 0 4 0;
#X connect 7 0 6 0;
#X connect 9 0 10 0;
#X connect 9 0 12 0;
#X connect 10 0 11 0;
#X connect 12 0 13 0;
#X connect 12 0 14 0;
#X connect 14 0 15 0;
#X connect 15 0 26 0;
#X connect 15 0 19 0;
#X connect 16 0 15 1;
#X connect 18 0 19 0;
#X connect 19 0 20 0;
#X connect 20 0 24 0;
#X connect 22 0 18 0;
#X connect 23 0 20 1;
#X connect 25 0 21 0;
#X connect 26 0 27 0;
#X connect 27 0 198 0;
#X connect 28 0 27 1;
#X connect 28 0 177 0;
#X connect 29 0 14 0;
#X connect 29 0 118 0;
#X connect 30 0 31 0;
#X connect 31 0 34 0;
#X connect 31 1 33 0;
#X connect 32 0 157 0;
#X connect 32 0 122 0;
#X connect 33 0 14 0;
#X connect 34 0 14 1;
#X connect 38 0 39 0;
#X connect 39 0 41 0;
#X connect 40 0 39 1;
#X connect 41 0 42 0;
#X connect 42 0 200 0;
#X connect 43 0 42 1;
#X connect 43 0 158 0;
#X connect 44 0 38 0;
#X connect 45 0 46 0;
#X connect 46 0 49 0;
#X connect 46 1 48 0;
#X connect 47 0 52 0;
#X connect 47 0 53 0;
#X connect 48 0 38 0;
#X connect 49 0 38 1;
#X connect 52 0 44 0;
#X connect 53 0 45 0;
#X connect 54 0 55 0;
#X connect 55 0 57 0;
#X connect 56 0 55 1;
#X connect 57 0 58 0;
#X connect 58 0 201 0;
#X connect 59 0 58 1;
#X connect 59 0 159 0;
#X connect 60 0 54 0;
#X connect 61 0 62 0;
#X connect 62 0 65 0;
#X connect 62 1 64 0;
#X connect 63 0 155 0;
#X connect 63 0 156 0;
#X connect 64 0 54 0;
#X connect 65 0 54 1;
#X connect 68 0 69 0;
#X connect 69 0 71 0;
#X connect 70 0 69 1;
#X connect 71 0 72 0;
#X connect 72 0 202 0;
#X connect 73 0 72 1;
#X connect 73 0 160 0;
#X connect 74 0 68 0;
#X connect 75 0 76 0;
#X connect 76 0 79 0;
#X connect 76 1 78 0;
#X connect 77 0 117 0;
#X connect 77 0 116 0;
#X connect 78 0 68 0;
#X connect 79 0 68 1;
#X connect 82 0 83 0;
#X connect 83 0 85 0;
#X connect 84 0 83 1;
#X connect 85 0 86 0;
#X connect 86 0 204 0;
#X connect 87 0 86 1;
#X connect 87 0 161 0;
#X connect 88 0 82 0;
#X connect 89 0 90 0;
#X connect 90 0 93 0;
#X connect 90 1 92 0;
#X connect 91 0 115 0;
#X connect 91 0 119 0;
#X connect 92 0 82 0;
#X connect 93 0 82 1;
#X connect 96 0 97 0;
#X connect 97 0 99 0;
#X connect 98 0 97 1;
#X connect 99 0 100 0;
#X connect 100 0 205 0;
#X connect 101 0 100 1;
#X connect 101 0 162 0;
#X connect 102 0 96 0;
#X connect 103 0 104 0;
#X connect 104 0 107 0;
#X connect 104 1 106 0;
#X connect 105 0 114 0;
#X connect 105 0 120 0;
#X connect 106 0 96 0;
#X connect 107 0 96 1;
#X connect 110 0 156 1;
#X connect 111 0 116 1;
#X connect 112 0 119 1;
#X connect 113 0 120 1;
#X connect 114 0 102 0;
#X connect 115 0 88 0;
#X connect 116 0 75 0;
#X connect 117 0 74 0;
#X connect 119 0 89 0;
#X connect 120 0 103 0;
#X connect 121 0 122 1;
#X connect 122 0 30 0;
#X connect 125 0 126 0;
#X connect 125 0 127 0;
#X connect 126 0 152 0;
#X connect 127 0 128 0;
#X connect 127 0 129 0;
#X connect 129 0 130 0;
#X connect 130 0 132 0;
#X connect 130 0 147 0;
#X connect 131 0 132 0;
#X connect 132 0 133 0;
#X connect 133 0 149 0;
#X connect 134 0 131 0;
#X connect 135 0 203 0;
#X connect 136 0 135 1;
#X connect 136 0 181 0;
#X connect 137 0 129 0;
#X connect 137 0 146 0;
#X connect 138 0 139 0;
#X connect 139 0 142 0;
#X connect 139 1 141 0;
#X connect 140 0 148 0;
#X connect 141 0 129 0;
#X connect 142 0 129 1;
#X connect 147 0 135 0;
#X connect 148 0 137 0;
#X connect 151 0 150 0;
#X connect 153 0 130 1;
#X connect 154 0 133 1;
#X connect 155 0 60 0;
#X connect 156 0 61 0;
#X connect 157 0 29 0;
#X connect 163 0 43 0;
#X connect 164 0 59 0;
#X connect 165 0 73 0;
#X connect 166 0 87 0;
#X connect 167 0 101 0;
#X connect 168 0 175 0;
#X connect 170 0 163 0;
#X connect 171 0 164 0;
#X connect 172 0 165 0;
#X connect 173 0 166 0;
#X connect 174 0 167 0;
#X connect 175 0 169 0;
#X connect 176 0 1 0;
#X connect 178 0 179 0;
#X connect 179 0 28 0;
#X connect 180 0 182 0;
#X connect 182 0 136 0;
#X connect 183 0 187 0;
#X connect 184 0 9 0;
#X connect 185 0 184 0;
#X connect 185 0 122 0;
#X connect 186 0 169 0;
#X connect 187 0 125 0;
#X connect 188 0 32 0;
#X connect 189 0 47 0;
#X connect 190 0 63 0;
#X connect 191 0 77 0;
#X connect 192 0 91 0;
#X connect 193 0 105 0;
#X connect 194 0 195 0;
#X connect 194 0 195 1;
#X connect 196 0 194 1;
#X connect 197 0 196 0;
#X connect 199 0 194 0;
