#N canvas 234 0 1366 726 10;
#X obj 114 66 cnv 15 60 22 empty empty empty 20 12 0 14 -253938 -66577
0;
#N canvas 146 163 525 433 serin 0;
#X obj 180 61 cnv 15 15 15 empty \$0-number-canvas 2 4 8 0 14 -233017
-1 0;
#X obj 200 225 s \$0-number-canvas;
#X obj 60 61 hradio 15 1 1 8 empty empty empty 0 -6 0 8 -225271 -1
-1 2;
#X obj 60 13 inlet;
#X msg 200 202 label \$1;
#X obj 200 180 makefilename %d;
#X obj 59 108 int;
#X msg 59 206 open \$1;
#X obj 59 377 outlet;
#X msg 201 306 set \$1 \$2;
#X obj 59 266 trigger bang anything;
#X obj 201 286 list;
#X obj 383 383 outlet;
#X obj 384 22 netreceive 34567;
#X obj 477 43 tgl 15 0 empty empty empty 0 -6 0 10 -262144 -1 -1 0
1;
#X obj 384 41 bng 15 250 50 0 empty empty empty 0 -6 0 10 -262144 -1
-1;
#X obj 187 24 delay 15000;
#X text 345 379 close;
#X text 209 4 for open/close automation in Makefile;
#X obj 184 95 bang;
#X obj 184 137 send ARDUINO_TEST_RESET;
#X msg 184 116 set 0;
#X connect 2 0 6 0;
#X connect 2 0 19 0;
#X connect 3 0 2 0;
#X connect 4 0 1 0;
#X connect 5 0 4 0;
#X connect 6 0 5 0;
#X connect 6 0 7 0;
#X connect 7 0 10 0;
#X connect 9 0 8 0;
#X connect 10 0 8 0;
#X connect 10 1 11 0;
#X connect 11 0 9 0;
#X connect 13 0 15 0;
#X connect 13 1 14 0;
#X connect 15 0 16 0;
#X connect 15 0 12 0;
#X connect 16 0 2 0;
#X connect 19 0 21 0;
#X connect 21 0 20 0;
#X coords 0 -1 1 1 136 17 1 60 60;
#X restore 117 44 pd serin;
#X text 117 27 serial port #;
#X msg 181 68 close;
#X floatatom 22 334 5 0 0 3 a0 - -;
#X floatatom 68 334 5 0 0 3 a1 - -;
#X floatatom 114 334 5 0 0 3 a2 - -;
#X floatatom 160 334 5 0 0 3 a3 - -;
#X floatatom 206 334 5 0 0 3 a4 - -;
#X floatatom 252 334 5 0 0 3 a5 - -;
#N canvas 273 6 499 396 display 0;
#X obj 6 7 inlet;
#X obj 6 28 mapping/resample 100;
#X obj 6 50 outlet;
#X obj 54 50 inlet;
#X obj 54 71 mapping/resample 100;
#X obj 54 93 outlet;
#X obj 103 93 inlet;
#X obj 103 114 mapping/resample 100;
#X obj 103 136 outlet;
#X obj 151 136 inlet;
#X obj 151 157 mapping/resample 100;
#X obj 151 179 outlet;
#X obj 200 179 inlet;
#X obj 200 200 mapping/resample 100;
#X obj 200 222 outlet;
#X obj 247 222 inlet;
#X obj 247 243 mapping/resample 100;
#X obj 247 265 outlet;
#X obj 322 40 receive ARDUINO_TEST_RESET;
#X connect 0 0 1 0;
#X connect 1 0 2 0;
#X connect 3 0 4 0;
#X connect 4 0 5 0;
#X connect 6 0 7 0;
#X connect 7 0 8 0;
#X connect 9 0 10 0;
#X connect 10 0 11 0;
#X connect 12 0 13 0;
#X connect 13 0 14 0;
#X connect 15 0 16 0;
#X connect 16 0 17 0;
#X connect 18 0 16 0;
#X connect 18 0 13 0;
#X connect 18 0 10 0;
#X connect 18 0 7 0;
#X connect 18 0 4 0;
#X connect 18 0 1 0;
#X restore 45 308 pd display values without pegging the CPU;
#X obj 121 180 arduino 1;
#N canvas 205 22 593 390 strings 0;
#X obj -178 287 outlet;
#X obj -142 101 moocow/any2string;
#X symbolatom -92 48 10 0 0 0 - - -;
#X obj -119 179 pddp/print;
#X obj -92 68 list trim;
#X msg -175 39 test;
#X msg -139 40 TEST;
#X obj -142 130 cyclone/prepend string;
#X obj -313 102 moocow/any2string;
#X symbolatom -263 49 10 0 0 0 - - -;
#X obj -314 202 pddp/print;
#X obj -263 69 list trim;
#X msg -346 40 test;
#X msg -310 41 TEST;
#X obj -313 153 cyclone/prepend sysex;
#X obj -313 131 cyclone/prepend 40;
#X msg 66 117 samplingInterval \$1;
#X obj 69 93 hsl 128 15 0 127 0 0 empty empty empty -2 -8 0 10 -262144
-1 -1 0 1;
#X floatatom 27 117 5 0 0 0 - - -;
#X connect 1 0 7 0;
#X connect 2 0 4 0;
#X connect 4 0 1 0;
#X connect 5 0 1 0;
#X connect 6 0 1 0;
#X connect 7 0 3 0;
#X connect 7 0 0 0;
#X connect 8 0 15 0;
#X connect 9 0 11 0;
#X connect 11 0 8 0;
#X connect 12 0 8 0;
#X connect 13 0 8 0;
#X connect 14 0 0 0;
#X connect 14 0 10 0;
#X connect 15 0 14 0;
#X connect 16 0 0 0;
#X connect 17 0 16 0;
#X connect 17 0 18 0;
#X restore 183 133 pd strings and special messages;
#N canvas 589 92 450 300 old 1;
#X msg 95 138 digitalIns 2 1;
#X msg 88 77 analogIns 0 0;
#N canvas 162 133 610 460 serin 0;
#X obj 59 337 outlet;
#X obj 59 266 trigger bang anything;
#X obj 201 286 list;
#X obj 60 61 tgl 15 0 junk_to_hide_inlet ARDUINO_TEST_RESET 0 5 9 1
12 -262130 -1 -1 0 1;
#X obj 75 61 tgl 15 0 junk_to_hide_inlet ARDUINO_TEST_RESET 1 5 9 1
12 -262130 -1 -1 0 1;
#X obj 90 61 tgl 15 0 junk_to_hide_inlet ARDUINO_TEST_RESET 2 5 9 1
12 -262130 -1 -1 0 1;
#X obj 105 61 tgl 15 0 junk_to_hide_inlet ARDUINO_TEST_RESET 3 5 9
1 12 -262130 -1 -1 0 1;
#X obj 120 61 tgl 15 0 junk_to_hide_inlet ARDUINO_TEST_RESET 4 5 9
1 12 -262130 -1 -1 0 1;
#X obj 135 61 tgl 15 0 junk_to_hide_inlet ARDUINO_TEST_RESET 5 5 9
1 12 -262130 -1 -1 0 1;
#X obj 150 61 tgl 15 0 junk_to_hide_inlet ARDUINO_TEST_RESET 6 5 9
1 12 -262130 -1 -1 0 1;
#X obj 165 61 tgl 15 0 junk_to_hide_inlet ARDUINO_TEST_RESET 7 5 9
1 12 -262130 -1 -1 0 1;
#X msg 59 210 analogIns \$1 \$2;
#X msg 35 106 0 \$1;
#X msg 70 106 1 \$1;
#X msg 105 106 2 \$1;
#X msg 140 106 3 \$1;
#X msg 175 106 4 \$1;
#X msg 210 106 5 \$1;
#X msg 245 106 6 \$1;
#X msg 280 106 7 \$1;
#X msg 202 307 set \$1 \$2 \$3;
#X connect 1 0 0 0;
#X connect 1 1 2 0;
#X connect 2 0 20 0;
#X connect 3 0 12 0;
#X connect 4 0 13 0;
#X connect 5 0 14 0;
#X connect 6 0 15 0;
#X connect 7 0 16 0;
#X connect 8 0 17 0;
#X connect 9 0 18 0;
#X connect 10 0 19 0;
#X connect 11 0 1 0;
#X connect 12 0 11 0;
#X connect 13 0 11 0;
#X connect 14 0 11 0;
#X connect 15 0 11 0;
#X connect 16 0 11 0;
#X connect 17 0 11 0;
#X connect 18 0 11 0;
#X connect 19 0 11 0;
#X connect 20 0 0 0;
#X coords 0 -1 1 1 120 16 1 60 60;
#X restore 88 55 pd serin;
#X text 87 38 which analogIns to enable:;
#X text 94 101 which digital ports to enable:;
#N canvas 162 133 610 460 seri 0;
#X obj 59 337 outlet;
#X obj 59 266 trigger bang anything;
#X obj 201 286 list;
#X obj 60 61 tgl 15 0 junk_to_hide_inlet ARDUINO_TEST_RESET 0 5 9 1
12 -260736 -1 -1 0 1;
#X obj 75 61 tgl 15 0 junk_to_hide_inlet ARDUINO_TEST_RESET 1 5 9 1
12 -260736 -1 -1 0 1;
#X obj 90 61 tgl 15 0 junk_to_hide_inlet ARDUINO_TEST_RESET 2 5 9 1
12 -260736 -1 -1 0 1;
#X msg 35 106 0 \$1;
#X msg 70 106 1 \$1;
#X msg 105 106 2 \$1;
#X msg 202 307 set \$1 \$2 \$3;
#X msg 59 210 digitalIns \$1 \$2;
#X connect 1 0 0 0;
#X connect 1 1 2 0;
#X connect 2 0 9 0;
#X connect 3 0 6 0;
#X connect 4 0 7 0;
#X connect 5 0 8 0;
#X connect 6 0 10 0;
#X connect 7 0 10 0;
#X connect 8 0 10 0;
#X connect 9 0 0 0;
#X connect 10 0 1 0;
#X coords 0 -1 1 1 45 16 1 60 60;
#X restore 95 118 pd seri;
#X obj 42 179 outlet;
#X msg 224 139 digitalIns 8 1;
#X connect 0 0 6 0;
#X connect 1 0 6 0;
#X connect 2 0 1 0;
#X connect 5 0 0 0;
#X connect 7 0 6 0;
#X restore 183 110 pd old analog/digital controls;
#X text 181 179 <-- argument sets port #;
#X text 9 277 analog inputs:;
#X obj 121 212 route analog digital string sysex;
#X msg 121 68 open 2;
#X obj 21 633 Frances;
#X floatatom 385 410 5 0 0 0 - - -;
#X obj 385 387 * 1000;
#X obj 385 433 i;
#X floatatom 416 486 5 0 0 0 - - -;
#X obj 385 513 spigot;
#X floatatom 386 540 5 0 0 0 - - -;
#X floatatom 431 432 5 0 0 0 - - -;
#N canvas 577 137 304 266 gate 0;
#X obj 46 79 bng 15 250 50 0 empty empty empty 17 7 0 10 -262144 -1
-1;
#X msg 134 148 0;
#X obj 137 126 bng 15 250 50 0 empty empty empty 17 7 0 10 -262144
-1 -1;
#X obj 125 24 bng 15 250 50 0 empty empty empty 17 7 0 10 -262144 -1
-1;
#X obj 125 74 bng 15 250 50 0 empty empty empty 17 7 0 10 -262144 -1
-1;
#X obj 125 51 delay 1000;
#X obj 46 138 gate 2;
#X obj 73 171 bng 15 250 50 0 empty empty empty 17 7 0 10 -262144 -1
-1;
#X msg 124 97 2;
#X obj 46 32 inlet;
#X obj 67 203 outlet;
#X obj 217 74 r lbang;
#X connect 0 0 6 1;
#X connect 1 0 6 0;
#X connect 2 0 1 0;
#X connect 3 0 5 0;
#X connect 4 0 8 0;
#X connect 5 0 4 0;
#X connect 6 1 7 0;
#X connect 6 1 2 0;
#X connect 6 1 3 0;
#X connect 7 0 10 0;
#X connect 8 0 6 0;
#X connect 9 0 0 0;
#X connect 11 0 8 0;
#X restore 386 568 pd gate;
#X obj 121 277 route 0 1 2 3 4 5;
#X obj 385 460 >= 400;
#X floatatom 310 406 5 0 0 0 - - -;
#X obj 310 383 * 1000;
#X obj 310 429 i;
#X floatatom 341 479 5 0 0 0 - - -;
#X obj 310 506 spigot;
#X floatatom 311 533 5 0 0 0 - - -;
#X floatatom 343 435 5 0 0 0 - - -;
#N canvas 0 0 304 266 gate 0;
#X obj 46 79 bng 15 250 50 0 empty empty empty 17 7 0 10 -262144 -1
-1;
#X msg 134 148 0;
#X obj 137 126 bng 15 250 50 0 empty empty empty 17 7 0 10 -262144
-1 -1;
#X obj 125 24 bng 15 250 50 0 empty empty empty 17 7 0 10 -262144 -1
-1;
#X obj 125 74 bng 15 250 50 0 empty empty empty 17 7 0 10 -262144 -1
-1;
#X obj 125 51 delay 1000;
#X obj 46 138 gate 2;
#X obj 73 171 bng 15 250 50 0 empty empty empty 17 7 0 10 -262144 -1
-1;
#X msg 124 97 2;
#X obj 46 32 inlet;
#X obj 67 203 outlet;
#X obj 217 74 r lbang;
#X connect 0 0 6 1;
#X connect 1 0 6 0;
#X connect 2 0 1 0;
#X connect 3 0 5 0;
#X connect 4 0 8 0;
#X connect 5 0 4 0;
#X connect 6 1 7 0;
#X connect 6 1 2 0;
#X connect 6 1 3 0;
#X connect 7 0 10 0;
#X connect 8 0 6 0;
#X connect 9 0 0 0;
#X connect 11 0 8 0;
#X restore 311 561 pd gate;
#X obj 310 456 >= 400;
#X floatatom 243 407 5 0 0 0 - - -;
#X obj 243 384 * 1000;
#X obj 243 430 i;
#X floatatom 274 480 5 0 0 0 - - -;
#X obj 243 507 spigot;
#X floatatom 244 534 5 0 0 0 - - -;
#X floatatom 275 434 5 0 0 0 - - -;
#N canvas 0 0 304 266 gate 0;
#X obj 46 79 bng 15 250 50 0 empty empty empty 17 7 0 10 -262144 -1
-1;
#X msg 134 148 0;
#X obj 137 126 bng 15 250 50 0 empty empty empty 17 7 0 10 -262144
-1 -1;
#X obj 125 24 bng 15 250 50 0 empty empty empty 17 7 0 10 -262144 -1
-1;
#X obj 125 74 bng 15 250 50 0 empty empty empty 17 7 0 10 -262144 -1
-1;
#X obj 125 51 delay 1000;
#X obj 46 138 gate 2;
#X obj 73 171 bng 15 250 50 0 empty empty empty 17 7 0 10 -262144 -1
-1;
#X msg 124 97 2;
#X obj 46 32 inlet;
#X obj 67 203 outlet;
#X obj 217 74 r lbang;
#X connect 0 0 6 1;
#X connect 1 0 6 0;
#X connect 2 0 1 0;
#X connect 3 0 5 0;
#X connect 4 0 8 0;
#X connect 5 0 4 0;
#X connect 6 1 7 0;
#X connect 6 1 2 0;
#X connect 6 1 3 0;
#X connect 7 0 10 0;
#X connect 8 0 6 0;
#X connect 9 0 0 0;
#X connect 11 0 8 0;
#X restore 244 562 pd gate;
#X obj 243 457 >= 400;
#X floatatom 20 404 5 0 0 0 - - -;
#X obj 20 381 * 1000;
#X obj 20 427 i;
#X floatatom 51 483 5 0 0 0 - - -;
#X obj 20 510 spigot;
#X floatatom 21 537 5 0 0 0 - - -;
#X floatatom 52 431 5 0 0 0 - - -;
#N canvas 0 0 304 266 gate 0;
#X obj 46 79 bng 15 250 50 0 empty empty empty 17 7 0 10 -262144 -1
-1;
#X msg 134 148 0;
#X obj 137 126 bng 15 250 50 0 empty empty empty 17 7 0 10 -262144
-1 -1;
#X obj 125 24 bng 15 250 50 0 empty empty empty 17 7 0 10 -262144 -1
-1;
#X obj 125 74 bng 15 250 50 0 empty empty empty 17 7 0 10 -262144 -1
-1;
#X obj 125 51 delay 1000;
#X obj 46 138 gate 2;
#X obj 73 171 bng 15 250 50 0 empty empty empty 17 7 0 10 -262144 -1
-1;
#X msg 124 97 2;
#X obj 46 32 inlet;
#X obj 67 203 outlet;
#X obj 217 74 r lbang;
#X connect 0 0 6 1;
#X connect 1 0 6 0;
#X connect 2 0 1 0;
#X connect 3 0 5 0;
#X connect 4 0 8 0;
#X connect 5 0 4 0;
#X connect 6 1 7 0;
#X connect 6 1 2 0;
#X connect 6 1 3 0;
#X connect 7 0 10 0;
#X connect 8 0 6 0;
#X connect 9 0 0 0;
#X connect 11 0 8 0;
#X restore 21 565 pd gate;
#X obj 20 454 >= 400;
#X floatatom 89 403 5 0 0 0 - - -;
#X obj 89 380 * 1000;
#X obj 89 426 i;
#X floatatom 120 482 5 0 0 0 - - -;
#X obj 89 509 spigot;
#X floatatom 90 536 5 0 0 0 - - -;
#X floatatom 121 430 5 0 0 0 - - -;
#N canvas 0 0 304 266 gate 0;
#X obj 46 79 bng 15 250 50 0 empty empty empty 17 7 0 10 -262144 -1
-1;
#X msg 134 148 0;
#X obj 137 126 bng 15 250 50 0 empty empty empty 17 7 0 10 -262144
-1 -1;
#X obj 125 24 bng 15 250 50 0 empty empty empty 17 7 0 10 -262144 -1
-1;
#X obj 125 74 bng 15 250 50 0 empty empty empty 17 7 0 10 -262144 -1
-1;
#X obj 125 51 delay 1000;
#X obj 46 138 gate 2;
#X obj 73 171 bng 15 250 50 0 empty empty empty 17 7 0 10 -262144 -1
-1;
#X msg 124 97 2;
#X obj 46 32 inlet;
#X obj 67 203 outlet;
#X obj 217 74 r lbang;
#X connect 0 0 6 1;
#X connect 1 0 6 0;
#X connect 2 0 1 0;
#X connect 3 0 5 0;
#X connect 4 0 8 0;
#X connect 5 0 4 0;
#X connect 6 1 7 0;
#X connect 6 1 2 0;
#X connect 6 1 3 0;
#X connect 7 0 10 0;
#X connect 8 0 6 0;
#X connect 9 0 0 0;
#X connect 11 0 8 0;
#X restore 90 564 pd gate;
#X obj 89 453 >= 400;
#X floatatom 163 403 5 0 0 0 - - -;
#X obj 163 380 * 1000;
#X obj 163 426 i;
#X floatatom 194 482 5 0 0 0 - - -;
#X obj 163 509 spigot;
#X floatatom 164 536 5 0 0 0 - - -;
#X floatatom 195 430 5 0 0 0 - - -;
#N canvas 0 0 304 266 gate 0;
#X obj 46 79 bng 15 250 50 0 empty empty empty 17 7 0 10 -262144 -1
-1;
#X msg 134 148 0;
#X obj 137 126 bng 15 250 50 0 empty empty empty 17 7 0 10 -262144
-1 -1;
#X obj 125 24 bng 15 250 50 0 empty empty empty 17 7 0 10 -262144 -1
-1;
#X obj 125 74 bng 15 250 50 0 empty empty empty 17 7 0 10 -262144 -1
-1;
#X obj 125 51 delay 1000;
#X obj 46 138 gate 2;
#X obj 73 171 bng 15 250 50 0 empty empty empty 17 7 0 10 -262144 -1
-1;
#X msg 124 97 2;
#X obj 46 32 inlet;
#X obj 67 203 outlet;
#X obj 217 74 r lbang;
#X connect 0 0 6 1;
#X connect 1 0 6 0;
#X connect 2 0 1 0;
#X connect 3 0 5 0;
#X connect 4 0 8 0;
#X connect 5 0 4 0;
#X connect 6 1 7 0;
#X connect 6 1 2 0;
#X connect 6 1 3 0;
#X connect 7 0 10 0;
#X connect 8 0 6 0;
#X connect 9 0 0 0;
#X connect 11 0 8 0;
#X restore 164 564 pd gate;
#X obj 163 453 >= 400;
#X obj 305 253 route 8;
#X obj 334 297 tgl 15 0 empty empty empty 17 7 0 10 -262144 -1 -1 0
1;
#X obj 436 316 print digi8;
#X obj 525 288;
#X floatatom 525 246 5 0 0 0 - - -;
#X msg 460 143 pinMode 8 input;
#X connect 1 0 17 0;
#X connect 1 1 3 0;
#X connect 3 0 11 0;
#X connect 4 0 48 0;
#X connect 5 0 57 0;
#X connect 6 0 66 0;
#X connect 7 0 39 0;
#X connect 8 0 30 0;
#X connect 9 0 20 0;
#X connect 10 0 4 0;
#X connect 10 1 5 0;
#X connect 10 2 6 0;
#X connect 10 3 7 0;
#X connect 10 4 8 0;
#X connect 10 5 9 0;
#X connect 11 0 16 0;
#X connect 12 0 11 0;
#X connect 13 0 11 0;
#X connect 16 0 27 0;
#X connect 16 1 74 0;
#X connect 17 0 11 0;
#X connect 19 0 21 0;
#X connect 20 0 19 0;
#X connect 21 0 28 0;
#X connect 22 0 23 1;
#X connect 23 0 24 0;
#X connect 24 0 26 0;
#X connect 25 0 28 1;
#X connect 26 0 18 5;
#X connect 27 0 10 0;
#X connect 27 1 10 1;
#X connect 27 2 10 2;
#X connect 27 3 10 3;
#X connect 27 4 10 4;
#X connect 27 5 10 5;
#X connect 28 0 22 0;
#X connect 28 0 23 0;
#X connect 29 0 31 0;
#X connect 30 0 29 0;
#X connect 31 0 37 0;
#X connect 32 0 33 1;
#X connect 33 0 34 0;
#X connect 34 0 36 0;
#X connect 35 0 37 1;
#X connect 36 0 18 4;
#X connect 37 0 32 0;
#X connect 37 0 33 0;
#X connect 38 0 40 0;
#X connect 39 0 38 0;
#X connect 40 0 46 0;
#X connect 41 0 42 1;
#X connect 42 0 43 0;
#X connect 43 0 45 0;
#X connect 44 0 46 1;
#X connect 45 0 18 3;
#X connect 46 0 41 0;
#X connect 46 0 42 0;
#X connect 47 0 49 0;
#X connect 48 0 47 0;
#X connect 49 0 55 0;
#X connect 50 0 51 1;
#X connect 51 0 52 0;
#X connect 52 0 54 0;
#X connect 53 0 55 1;
#X connect 54 0 18 0;
#X connect 55 0 50 0;
#X connect 55 0 51 0;
#X connect 56 0 58 0;
#X connect 57 0 56 0;
#X connect 58 0 64 0;
#X connect 59 0 60 1;
#X connect 60 0 61 0;
#X connect 61 0 63 0;
#X connect 62 0 64 1;
#X connect 63 0 18 1;
#X connect 64 0 59 0;
#X connect 64 0 60 0;
#X connect 65 0 67 0;
#X connect 66 0 65 0;
#X connect 67 0 73 0;
#X connect 68 0 69 1;
#X connect 69 0 70 0;
#X connect 70 0 72 0;
#X connect 71 0 73 1;
#X connect 72 0 18 2;
#X connect 73 0 68 0;
#X connect 73 0 69 0;
#X connect 74 0 75 0;
#X connect 74 0 76 0;
#X connect 74 0 78 0;
#X connect 79 0 11 0;
